<svg id="圖層_2" data-name="圖層 2" xmlns="http://www.w3.org/2000/svg" viewBox="0 0 277.51 50.95"><defs><style>.cls-1{fill:#423e3f;}.cls-2{fill:#e66343;}.cls-3{fill:#fff;}</style></defs><title>logotype-sm</title><path class="cls-1" d="M28.06,23.6v-.8c2.35-.23,2.44-.4,2.41-3.47l0-11.67c-2.35,5.24-6.13,13.42-7.13,15.94h-.74C21.66,21,18.42,13.13,16.25,8c-.49,10-.52,12.27-.52,12.81,0,1.61.75,1.84,2.69,2v.8H11.64v-.8c1.66-.18,2.35-.52,2.58-2.06.17-1.26.2-2.29.94-12.74.12-1.48-.17-2-2.69-2.2V5h5l6.32,14.51L30.55,5h5v.8c-2.46.29-2.78.55-2.72,2.55l.12,11c.11,3.07.2,3.21,2.71,3.47v.8Z" transform="translate(-10.84 -4.34)"/><path class="cls-1" d="M48.54,23.6v-.8c1.86-.23,2.09-.52,1.69-1.61s-.94-2.54-1.54-4.34H42.51c-.46,1.28-.89,2.4-1.29,3.57-.63,1.86-.23,2.09,2.12,2.38v.8H36.73v-.8c1.8-.23,2.26-.43,3.26-3l5.92-15,.92-.17c1.8,4.89,3.77,10.3,5.57,15.25.92,2.49,1.18,2.72,3.21,2.95v.8ZM45.68,8.35c-.91,2.46-1.89,5.06-2.75,7.32h5.35Z" transform="translate(-10.84 -4.34)"/><path class="cls-1" d="M75.26,15.79c-1.77.23-1.89.4-1.89,2.09v2.4A16.11,16.11,0,0,0,73.54,23a29.12,29.12,0,0,1-6.49,1c-6.5,0-10.44-4-10.44-9.79,0-6,4.92-9.64,10.64-9.64a28.66,28.66,0,0,1,6,.72c.06,1,.2,2.8.43,4.6l-.86.17C72.08,7.66,71.25,6.63,69.45,6a9.6,9.6,0,0,0-2.66-.37c-4.38,0-7.21,3-7.21,8.24,0,4.55,2.35,9.07,7.9,9.07a5.65,5.65,0,0,0,2.43-.49,1.7,1.7,0,0,0,1-1.83V18.3c0-2.08-.23-2.31-3-2.51V15h7.35Z" transform="translate(-10.84 -4.34)"/><path class="cls-1" d="M77.49,23.6v-.8c2.34-.26,2.57-.38,2.57-2.81V8.63c0-2.46-.23-2.57-2.57-2.83V5h7.66v.8c-2.37.26-2.6.37-2.6,2.83V20c0,2.46.23,2.55,2.6,2.81v.8Z" transform="translate(-10.84 -4.34)"/><path class="cls-1" d="M105,19a36.38,36.38,0,0,1-1.58,4.32A26.12,26.12,0,0,1,98.2,24c-6.84,0-10.33-4.55-10.33-9.56,0-5.84,4.43-9.87,10.84-9.87a28.67,28.67,0,0,1,5.41.66c.11,1.29.31,3,.54,4.43l-.88.2C103.2,8,102.52,6.8,101.06,6.2a7.94,7.94,0,0,0-3-.54c-4.72,0-7.21,3.49-7.21,8.21,0,5.52,2.86,9.07,7.5,9.07,2.92,0,4.35-1.35,5.81-4.21Z" transform="translate(-10.84 -4.34)"/><path class="cls-1" d="M124.11,9.35c-.49-1.89-1.29-3.75-4-3.75a2.85,2.85,0,0,0-3,3.12c0,2,1.26,3,3.63,4.21,3.44,1.77,4.92,3.09,4.92,5.8,0,3-2.6,5.3-6.29,5.3a11.92,11.92,0,0,1-4.38-1,38.49,38.49,0,0,1-.77-4.29l.89-.23c.57,1.92,1.83,4.41,4.8,4.41a3.15,3.15,0,0,0,3.32-3.29c0-2.21-1.17-3.09-3.69-4.47-3-1.63-4.69-3-4.69-5.66s2.12-5,5.89-5a18.64,18.64,0,0,1,3.78.54c.11,1,.23,2.18.46,4Z" transform="translate(-10.84 -4.34)"/><path class="cls-1" d="M143.16,9.49a11.22,11.22,0,0,0-.91-2.37c-.46-.77-.75-1-2.32-1h-2.86V20.08c0,2.23.23,2.54,2.94,2.72v.8h-8.32v-.8c2.66-.18,2.89-.46,2.89-2.72V6.15H132c-1.57,0-2,.17-2.51,1a12.62,12.62,0,0,0-1,2.32h-.86c.18-1.74.35-3.55.43-5.15h.66c.43.69.75.66,1.55.66h11.33a1.43,1.43,0,0,0,1.46-.66h.68c0,1.35.12,3.41.26,5.07Z" transform="translate(-10.84 -4.34)"/><path class="cls-1" d="M156,4.6A9.2,9.2,0,0,1,165.3,14c0,6.15-4.18,10-9.44,10a9.32,9.32,0,0,1-9.5-9.56C146.36,9.35,150,4.6,156,4.6Zm-.57,1.06c-3.21,0-6.12,2.69-6.12,8s2.91,9.24,7,9.24c3.46,0,6.06-2.58,6.06-8.1C162.38,8.83,159.21,5.66,155.46,5.66Z" transform="translate(-10.84 -4.34)"/><path class="cls-1" d="M185,23.83c-.38,0-.69,0-1.06-.06a5.09,5.09,0,0,1-4.47-2.46c-1-1.46-2.09-3.26-3-4.72-.57-.92-.94-1.09-2.4-1.09h-1V20c0,2.43.31,2.58,2.6,2.81v.8h-7.64v-.8c2.37-.26,2.57-.38,2.57-2.81V8.58c0-2.43-.31-2.52-2.57-2.78V5h7.3a8.1,8.1,0,0,1,4.57,1,4.27,4.27,0,0,1,1.95,3.78c0,2.46-1.58,4-3.69,4.92.51.89,1.74,2.8,2.6,4.09a26.42,26.42,0,0,0,2.26,2.95A4.07,4.07,0,0,0,185.15,23Zm-10.56-9.3a4.62,4.62,0,0,0,3.15-.83,4,4,0,0,0,1.57-3.52c0-3.06-2-4.18-4.24-4.18a2.59,2.59,0,0,0-1.51.29c-.26.2-.34.48-.34,1.23v7Z" transform="translate(-10.84 -4.34)"/><path class="cls-1" d="M201,19.05c-.18.74-.95,3.69-1.23,4.55H185.86v-.8c2.66-.2,2.86-.46,2.86-2.81V8.69c0-2.54-.31-2.69-2.46-2.89V5H195c2.69,0,3.8,0,4.14-.06,0,.72.15,2.86.26,4.38l-.86.14a9.42,9.42,0,0,0-.85-2.17c-.46-.94-1.12-1.14-2.84-1.14h-2.71c-.89,0-.95.08-.95.91v6.32h3.18c2.14,0,2.29-.43,2.63-2.37h.89V16.9H197c-.37-2.06-.6-2.34-2.66-2.34h-3.15v5.69c0,2,.63,2.17,2.06,2.2h2.66c1.75,0,2-.25,2.66-1a11.92,11.92,0,0,0,1.55-2.63Z" transform="translate(-10.84 -4.34)"/><rect class="cls-2" y="24.23" width="277.51" height="8.72"/><rect class="cls-3" y="24.23" width="24.19" height="8.72"/><rect class="cls-3" x="253.32" y="24.23" width="24.19" height="8.72"/><path class="cls-1" d="M161.8,44.7a11.17,11.17,0,0,0,2.32-.69v1.28s1.33-.77,1.39-.8a2.25,2.25,0,0,1,.93-.32,2.88,2.88,0,0,1,2.83,3,4.55,4.55,0,0,1-4,4.36,2.68,2.68,0,0,1-1.14-.29v2.16c0,1.18.13,1.28,1.36,1.39v.45h-3.79v-.45c1-.11,1.17-.19,1.17-1.26V46.3c0-1,0-1-1.06-1.17Zm2.32,5.47a2.3,2.3,0,0,0,1.52.62c1.39,0,2.29-1.16,2.29-3s-1-2.7-2.14-2.7a3.18,3.18,0,0,0-1.67.69Z" transform="translate(-10.84 -4.34)"/><path class="cls-1" d="M173.64,51.39H170v-.45c1-.1,1.1-.18,1.1-1.22V46.39c0-1.06-.06-1.1-1-1.22v-.39a8.72,8.72,0,0,0,2.26-.66v1.76c.56-.83,1.23-1.71,2-1.71a.83.83,0,0,1,.93.77,1.1,1.1,0,0,1-.54.88.32.32,0,0,1-.42,0,1,1,0,0,0-.72-.4c-.34,0-.93.5-1.28,1.32v3c0,1,.08,1.13,1.31,1.23Z" transform="translate(-10.84 -4.34)"/><path class="cls-1" d="M181.24,50a3.63,3.63,0,0,1-2.66,1.55,3.19,3.19,0,0,1-3.13-3.44,4.12,4.12,0,0,1,1-2.81,3.27,3.27,0,0,1,2.38-1.16,2.5,2.5,0,0,1,2.45,2.48c0,.32-.06.46-.32.53s-2.37.2-4.27.27c0,2.14,1.26,3,2.4,3a2.73,2.73,0,0,0,1.86-.81Zm-2.75-5.25c-.74,0-1.46.68-1.68,2,.89,0,1.79,0,2.73,0,.29,0,.39-.08.39-.32A1.48,1.48,0,0,0,178.49,44.78Z" transform="translate(-10.84 -4.34)"/><path class="cls-1" d="M181.91,44.7a11,11,0,0,0,2.32-.69v1.28c.05,0,1.33-.77,1.39-.8a2.25,2.25,0,0,1,.93-.32,2.89,2.89,0,0,1,2.84,3,4.55,4.55,0,0,1-4,4.36,2.72,2.72,0,0,1-1.14-.29v2.16c0,1.18.13,1.28,1.36,1.39v.45H181.8v-.45c1-.11,1.17-.19,1.17-1.26V46.3c0-1,0-1-1.06-1.17Zm2.32,5.47a2.3,2.3,0,0,0,1.52.62c1.39,0,2.29-1.16,2.29-3s-1-2.7-2.14-2.7a3.22,3.22,0,0,0-1.67.69Z" transform="translate(-10.84 -4.34)"/><path class="cls-1" d="M195.22,51.58a1.15,1.15,0,0,1-.75-.31,1.44,1.44,0,0,1-.38-.72,5,5,0,0,1-1.92,1,2,2,0,0,1-2-2,1.63,1.63,0,0,1,1.32-1.6,13.13,13.13,0,0,0,2.53-1v-.32c0-1.14-.58-1.79-1.41-1.79a.92.92,0,0,0-.75.36,3.58,3.58,0,0,0-.44,1,.44.44,0,0,1-.46.37.78.78,0,0,1-.71-.7c0-.23.21-.42.53-.64a6.72,6.72,0,0,1,2.31-1.12,2.19,2.19,0,0,1,1.34.43,2.21,2.21,0,0,1,.82,1.86v3.08c0,.74.27,1,.56,1a1.27,1.27,0,0,0,.58-.18l.15.45Zm-1.16-4-1.49.67c-.61.27-1,.58-1,1.17a1.16,1.16,0,0,0,1.15,1.23,2.13,2.13,0,0,0,1.32-.57Z" transform="translate(-10.84 -4.34)"/><path class="cls-1" d="M200.54,51.39h-3.68v-.45c1-.1,1.1-.18,1.1-1.22V46.39c0-1.06-.06-1.1-1-1.22v-.39a8.77,8.77,0,0,0,2.25-.66v1.76c.56-.83,1.24-1.71,2-1.71a.83.83,0,0,1,.93.77,1.09,1.09,0,0,1-.55.88.31.31,0,0,1-.41,0,1,1,0,0,0-.73-.4c-.33,0-.92.5-1.28,1.32v3c0,1,.08,1.13,1.32,1.23Z" transform="translate(-10.84 -4.34)"/><path class="cls-1" d="M208.14,50a3.66,3.66,0,0,1-2.66,1.55,3.2,3.2,0,0,1-3.14-3.44,4.17,4.17,0,0,1,1-2.81,3.31,3.31,0,0,1,2.39-1.16,2.5,2.5,0,0,1,2.45,2.48c0,.32-.07.46-.32.53s-2.37.2-4.28.27c0,2.14,1.27,3,2.41,3a2.71,2.71,0,0,0,1.85-.81Zm-2.76-5.25c-.73,0-1.45.68-1.68,2,.9,0,1.8,0,2.74,0,.29,0,.39-.08.39-.32A1.49,1.49,0,0,0,205.38,44.78Z" transform="translate(-10.84 -4.34)"/><path class="cls-1" d="M213.21,44.36v-.43a4.09,4.09,0,0,1,1.41-3.2,3.27,3.27,0,0,1,1.79-.85,1.76,1.76,0,0,1,1.3.51.52.52,0,0,1,.09.56,1.29,1.29,0,0,1-.38.51.38.38,0,0,1-.47,0,2.07,2.07,0,0,0-1.29-.66c-1.19,0-1.19,1.62-1.19,2.84v.75h1.7A.64.64,0,0,1,216,45h-1.54v4.62c0,1.15.18,1.17,1.38,1.3v.45h-3.76v-.45c1-.1,1.12-.16,1.12-1.2V45h-1.14l-.06-.18.35-.48Z" transform="translate(-10.84 -4.34)"/><path class="cls-1" d="M219.94,44.17a3.44,3.44,0,0,1,3.49,3.58,3.59,3.59,0,0,1-3.49,3.83A3.52,3.52,0,0,1,216.39,48,3.66,3.66,0,0,1,219.94,44.17Zm-.19.54c-1,0-1.85.95-1.85,2.8,0,2,.89,3.51,2.2,3.51,1,0,1.83-.72,1.83-2.92C221.93,46.23,221.16,44.71,219.75,44.71Z" transform="translate(-10.84 -4.34)"/><path class="cls-1" d="M227.75,51.39h-3.68v-.45c1-.1,1.11-.18,1.11-1.22V46.39c0-1.06-.07-1.1-1-1.22v-.39a8.72,8.72,0,0,0,2.26-.66v1.76c.56-.83,1.23-1.71,2-1.71a.83.83,0,0,1,.93.77,1.08,1.08,0,0,1-.54.88.32.32,0,0,1-.42,0,1,1,0,0,0-.72-.4c-.34,0-.93.5-1.28,1.32v3c0,1,.08,1.13,1.31,1.23Z" transform="translate(-10.84 -4.34)"/><path class="cls-1" d="M238.09,51.58a1.15,1.15,0,0,1-.75-.31,1.45,1.45,0,0,1-.39-.72,4.92,4.92,0,0,1-1.92,1,2,2,0,0,1-1.95-2,1.62,1.62,0,0,1,1.31-1.6,12.59,12.59,0,0,0,2.53-1v-.32c0-1.14-.58-1.79-1.41-1.79a.92.92,0,0,0-.75.36,3.35,3.35,0,0,0-.43,1,.45.45,0,0,1-.47.37.77.77,0,0,1-.7-.7c0-.23.21-.42.53-.64a6.57,6.57,0,0,1,2.3-1.12,2.09,2.09,0,0,1,2.16,2.29v3.08c0,.74.27,1,.56,1a1.27,1.27,0,0,0,.58-.18l.16.45Zm-1.17-4c-.35.17-1.12.51-1.49.67-.61.27-1,.58-1,1.17a1.15,1.15,0,0,0,1.15,1.23,2.13,2.13,0,0,0,1.31-.57Z" transform="translate(-10.84 -4.34)"/><path class="cls-1" d="M250,44.79c-.82.13-1,.3-1.3,1.2-.46,1.23-1.23,3.46-1.92,5.57h-.5c-.64-1.71-1.29-3.38-1.92-5-.59,1.47-1.31,3.25-1.95,5h-.48c-.58-1.9-1.18-3.79-1.84-5.71-.29-.87-.43-1-1.22-1.06v-.43h3.33v.43c-1,.16-1,.24-.8,1,.37,1.23.8,2.54,1.19,3.74.64-1.63,1.28-3.29,1.9-5.07h.43c.59,1.66,1.25,3.39,1.92,5.12.36-1,.87-2.54,1.17-3.71.21-.83.08-.91-1-1.06v-.43h3Z" transform="translate(-10.84 -4.34)"/><path class="cls-1" d="M255.74,50a3.66,3.66,0,0,1-2.66,1.55,3.2,3.2,0,0,1-3.14-3.44,4.17,4.17,0,0,1,1-2.81,3.31,3.31,0,0,1,2.39-1.16,2.5,2.5,0,0,1,2.45,2.48c0,.32-.07.46-.32.53s-2.37.2-4.28.27c-.05,2.14,1.27,3,2.4,3a2.71,2.71,0,0,0,1.86-.81ZM253,44.78c-.73,0-1.45.68-1.68,2,.9,0,1.8,0,2.74,0,.29,0,.38-.08.38-.32A1.48,1.48,0,0,0,253,44.78Z" transform="translate(-10.84 -4.34)"/><path class="cls-1" d="M260.55,46.26c-.29-.93-.7-1.56-1.68-1.56a1,1,0,0,0-1,1c0,.68.46,1,1.36,1.42,1.38.66,2.06,1.14,2.06,2.19a2.38,2.38,0,0,1-2.6,2.23,4.22,4.22,0,0,1-1.91-.45c-.08-.46-.22-1.34-.29-1.87l.47-.08c.28,1,.84,1.85,2,1.85A1.07,1.07,0,0,0,260.06,50c0-.73-.44-1.09-1.29-1.51-1.12-.54-2-1.06-2-2.21a2.21,2.21,0,0,1,2.5-2.06,8.11,8.11,0,0,1,1.54.21c0,.38.16,1.39.24,1.77Z" transform="translate(-10.84 -4.34)"/><path class="cls-1" d="M265.64,44.17a3.44,3.44,0,0,1,3.49,3.58,3.59,3.59,0,0,1-3.49,3.83A3.51,3.51,0,0,1,262.09,48,3.66,3.66,0,0,1,265.64,44.17Zm-.19.54c-1,0-1.86.95-1.86,2.8,0,2,.9,3.51,2.21,3.51,1,0,1.82-.72,1.82-2.92C267.62,46.23,266.86,44.71,265.45,44.71Z" transform="translate(-10.84 -4.34)"/><path class="cls-1" d="M278.55,51.39v-.45c.95-.1,1.06-.16,1.06-1.28V47c0-1.13-.38-1.85-1.38-1.85a2.91,2.91,0,0,0-1.77.83c0,.19,0,.38,0,.69v3.1c0,1,.15,1.09,1,1.19v.45H274.1v-.45c1-.1,1.14-.16,1.14-1.22V47c0-1.19-.37-1.84-1.34-1.84a3,3,0,0,0-1.76.83v3.76c0,1.06.11,1.12,1,1.22v.45h-3.44v-.45c1.06-.1,1.15-.16,1.15-1.22V46.41c0-1-.06-1.09-1-1.25v-.4a8.58,8.58,0,0,0,2.23-.64v1.3a10.91,10.91,0,0,1,1.18-.84,2.2,2.2,0,0,1,1.26-.41,1.88,1.88,0,0,1,1.75,1.31c.45-.35.86-.62,1.26-.9a2.49,2.49,0,0,1,1.27-.41c1.25,0,2,.89,2,2.46v3.09c0,1.07.09,1.12,1,1.22v.45Z" transform="translate(-10.84 -4.34)"/><path class="cls-1" d="M288.25,50a3.66,3.66,0,0,1-2.66,1.55,3.2,3.2,0,0,1-3.14-3.44,4.17,4.17,0,0,1,1-2.81,3.31,3.31,0,0,1,2.39-1.16,2.5,2.5,0,0,1,2.45,2.48c0,.32-.07.46-.32.53s-2.37.2-4.28.27c0,2.14,1.27,3,2.41,3a2.71,2.71,0,0,0,1.85-.81Zm-2.75-5.25c-.74,0-1.46.68-1.69,2,.9,0,1.8,0,2.74,0,.29,0,.39-.08.39-.32A1.49,1.49,0,0,0,285.5,44.78Z" transform="translate(-10.84 -4.34)"/></svg>